<svg width="19" height="19" viewBox="0 0 19 19" fill="none" xmlns="http://www.w3.org/2000/svg">
<path fill-rule="evenodd" clip-rule="evenodd" d="M17.6403 7.72844L10.1403 0.652188C10.1366 0.648989 10.1332 0.645543 10.13 0.641875C9.55781 0.121501 8.68376 0.121501 8.11156 0.641875L8.10125 0.652188L0.609688 7.72844C0.30073 8.01254 0.124936 8.41309 0.125 8.83281V17.5C0.125 18.3284 0.796573 19 1.625 19H6.125C6.95343 19 7.625 18.3284 7.625 17.5V13H10.625V17.5C10.625 18.3284 11.2966 19 12.125 19H16.625C17.4534 19 18.125 18.3284 18.125 17.5V8.83281C18.1251 8.41309 17.9493 8.01254 17.6403 7.72844ZM16.625 17.5H12.125V13C12.125 12.1716 11.4534 11.5 10.625 11.5H7.625C6.79657 11.5 6.125 12.1716 6.125 13V17.5H1.625V8.83281L1.63531 8.82344L9.125 1.75L16.6156 8.82156L16.6259 8.83094L16.625 17.5Z" fill="#121417"/>
</svg>
