<svg width="17" height="18" viewBox="0 0 17 18" fill="none" xmlns="http://www.w3.org/2000/svg">
<path fill-rule="evenodd" clip-rule="evenodd" d="M0.344375 5.03063C0.203542 4.88995 0.12441 4.69906 0.12441 4.5C0.12441 4.30094 0.203542 4.11005 0.344375 3.96938L3.34438 0.969375C3.55888 0.754627 3.88168 0.690345 4.16209 0.806533C4.4425 0.922721 4.62524 1.19647 4.625 1.5V3.75H15.875C16.2892 3.75 16.625 4.08579 16.625 4.5C16.625 4.91421 16.2892 5.25 15.875 5.25H4.625V7.5C4.62524 7.80353 4.4425 8.07728 4.16209 8.19347C3.88168 8.30966 3.55888 8.24537 3.34438 8.03063L0.344375 5.03063ZM16.4056 12.9694L13.4056 9.96937C13.1911 9.75463 12.8683 9.69034 12.5879 9.80653C12.3075 9.92272 12.1248 10.1965 12.125 10.5V12.75H0.875C0.460786 12.75 0.125 13.0858 0.125 13.5C0.125 13.9142 0.460786 14.25 0.875 14.25H12.125V16.5C12.1248 16.8035 12.3075 17.0773 12.5879 17.1935C12.8683 17.3097 13.1911 17.2454 13.4056 17.0306L16.4056 14.0306C16.5465 13.8899 16.6256 13.6991 16.6256 13.5C16.6256 13.3009 16.5465 13.1101 16.4056 12.9694Z" fill="#637587"/>
</svg>
