<svg width="20" height="20" viewBox="0 0 20 20" fill="none" xmlns="http://www.w3.org/2000/svg">
<path fill-rule="evenodd" clip-rule="evenodd" d="M19.4056 18.4694L14.7116 13.7762C17.5379 10.383 17.1954 5.36693 13.9341 2.38935C10.6728 -0.588237 5.64634 -0.474001 2.52367 2.64867C-0.599001 5.77134 -0.713237 10.7978 2.26435 14.0591C5.24193 17.3204 10.258 17.6629 13.6512 14.8366L18.3444 19.5306C18.6374 19.8237 19.1126 19.8237 19.4056 19.5306C19.6987 19.2376 19.6987 18.7624 19.4056 18.4694ZM1.625 8.5C1.625 4.77208 4.64708 1.75 8.375 1.75C12.1029 1.75 15.125 4.77208 15.125 8.5C15.125 12.2279 12.1029 15.25 8.375 15.25C4.64879 15.2459 1.62913 12.2262 1.625 8.5Z" fill="#637587"/>
</svg>
