<svg width="20" height="20" viewBox="0 0 20 20" fill="none" xmlns="http://www.w3.org/2000/svg">
<path fill-rule="evenodd" clip-rule="evenodd" d="M19.5238 17.875C18.0959 15.4066 15.8956 13.6366 13.3278 12.7975C15.9385 11.2433 17.1891 8.13638 16.3832 5.2069C15.5772 2.27741 12.9133 0.247449 9.875 0.247449C6.83667 0.247449 4.17279 2.27741 3.36682 5.2069C2.56085 8.13638 3.81145 11.2433 6.42219 12.7975C3.85438 13.6356 1.65406 15.4056 0.22625 17.875C0.0837035 18.1074 0.0785272 18.3989 0.212731 18.6363C0.346935 18.8736 0.599375 19.0194 0.872024 19.0171C1.14467 19.0147 1.39458 18.8646 1.52469 18.625C3.29094 15.5725 6.41281 13.75 9.875 13.75C13.3372 13.75 16.4591 15.5725 18.2253 18.625C18.3554 18.8646 18.6053 19.0147 18.878 19.0171C19.1506 19.0194 19.4031 18.8736 19.5373 18.6363C19.6715 18.3989 19.6663 18.1074 19.5238 17.875ZM4.625 7C4.625 4.1005 6.9755 1.75 9.875 1.75C12.7745 1.75 15.125 4.1005 15.125 7C15.125 9.8995 12.7745 12.25 9.875 12.25C6.97679 12.2469 4.6281 9.89821 4.625 7Z" fill="#637587"/>
</svg>
